<?xml version="1.0" encoding="UTF-8"?>
<!-- Generated by Pixelmator Pro 2.4.1 -->
<svg width="3541" height="790" viewBox="0 0 3541 790" xmlns="http://www.w3.org/2000/svg" xmlns:xlink="http://www.w3.org/1999/xlink">
    <g id="seminare-2x-copia">
        <path id="m" fill="#fa6a04" fill-rule="evenodd" stroke="none" d="M 1046.848755 784.737366 C 1038.562622 785.027832 1031.188232 784.683044 1030.461304 783.971008 C 1029.734863 783.258972 1029.140381 677.33844 1029.140381 548.591797 C 1029.140381 319.040771 1029.210449 314.470062 1032.771362 312.603363 C 1034.768921 311.556427 1041.105103 310.699402 1046.851929 310.699402 C 1054.797852 310.699402 1058.200684 311.580658 1061.056274 314.377136 C 1064.583252 317.832214 1064.811035 320.507019 1064.811035 358.510071 C 1064.811035 380.76059 1065.479736 398.96524 1066.296997 398.96524 C 1067.114746 398.96524 1070.120117 394.298492 1072.976563 388.594208 C 1075.83252 382.890381 1081.40564 373.581085 1085.360718 367.906891 C 1089.315796 362.233154 1096.658569 353.533966 1101.678467 348.575409 C 1106.697876 343.616821 1115.342285 336.276581 1120.888428 332.263947 C 1126.43396 328.250824 1138.82959 321.321838 1148.433472 316.865631 C 1158.03772 312.409424 1173.35437 307.148254 1182.470459 305.174255 C 1192.764648 302.944794 1206.258423 301.569672 1218.081177 301.544983 C 1228.550781 301.52298 1244.180542 302.816833 1252.81311 304.420013 C 1261.445679 306.022736 1274.967529 309.773224 1282.860718 312.753754 C 1290.754395 315.734283 1302.569336 321.563812 1309.116455 325.708923 C 1315.663452 329.853546 1325.771973 338.075073 1331.579224 343.979126 C 1337.386108 349.883179 1345.274292 360.560394 1349.108398 367.706665 C 1352.942017 374.852936 1357.364624 384.395691 1358.936401 388.912964 C 1360.507568 393.430664 1362.81311 397.126373 1364.058838 397.126373 C 1365.305176 397.126373 1368.261963 393.220581 1370.629761 388.44696 C 1372.997681 383.672882 1378.513916 374.363586 1382.887939 367.759644 C 1387.261475 361.155243 1395.273071 351.014954 1400.691162 345.22583 C 1406.108887 339.436249 1416.368652 330.905426 1423.48999 326.267853 C 1430.611816 321.630707 1441.741089 315.717682 1448.22168 313.127716 C 1454.701782 310.538208 1467.607544 306.87439 1476.901123 304.986572 C 1487.693848 302.793488 1501.596069 301.553528 1515.387939 301.553528 C 1529.179199 301.553528 1543.081421 302.793488 1553.874634 304.986572 C 1563.167725 306.87439 1576.073486 310.538208 1582.553589 313.127716 C 1589.034302 315.717682 1600.204224 321.657196 1607.376099 326.327118 C 1614.547852 330.997467 1624.733398 339.52829 1630.010742 345.285095 C 1636.048584 351.871979 1643.333618 363.25 1649.66394 375.97934 C 1655.882446 388.483765 1661.332642 402.87735 1663.938843 413.676239 C 1668.124023 431.018463 1668.159302 432.404785 1668.828979 603.999512 C 1669.286377 721.320984 1668.874756 778.207031 1667.547363 781.06543 C 1665.706665 785.029175 1664.679565 785.246033 1650.136963 784.743164 C 1635.518799 784.238098 1634.600708 783.960205 1633.175293 779.611755 C 1632.346558 777.083313 1631.464722 696.402832 1631.21582 600.321777 C 1630.801392 440.493408 1630.484741 424.690155 1627.491699 414.595673 C 1625.692627 408.52774 1621.210938 397.525024 1617.532715 390.145752 C 1613.524902 382.106537 1606.23291 371.900696 1599.339355 364.682587 C 1593.011841 358.057068 1583.572998 350.225708 1578.36438 347.279297 C 1573.155151 344.332886 1563.402344 340.212463 1556.690796 338.12265 C 1548.74939 335.65033 1536.932129 333.963623 1522.854858 333.293365 C 1506.54126 332.516693 1497.366943 333.028473 1485.540161 335.376007 C 1476.914917 337.08783 1464.517822 340.457153 1457.991455 342.863037 C 1451.464478 345.269379 1441.22168 350.305634 1435.229248 354.054749 C 1429.236816 357.804321 1419.264404 365.933777 1413.069336 372.121124 C 1406.873901 378.308014 1398.17627 389.362335 1393.741211 396.685974 C 1389.306152 404.009583 1383.555786 415.522278 1380.962891 422.269897 C 1378.369995 429.017517 1374.442383 441.222504 1372.235352 449.391907 C 1368.310547 463.921082 1368.21106 467.639679 1367.688599 619.629883 C 1367.394287 705.091675 1366.484497 777.083313 1365.665894 779.611755 C 1364.264648 783.941833 1363.308105 784.240845 1349.236328 784.753967 C 1336.797607 785.207397 1333.895264 784.763367 1331.90979 782.103821 C 1330.022217 779.575378 1329.524902 743.664429 1329.524902 609.976685 C 1329.524902 494.985718 1328.857056 436.82196 1327.433472 427.82019 C 1326.283447 420.546844 1323.228516 408.803406 1320.644897 401.723541 C 1318.061646 394.644165 1312.194702 383.28949 1307.608032 376.49115 C 1303.02124 369.69278 1295.304443 360.809998 1290.459717 356.752014 C 1285.61499 352.693542 1276.581787 346.937195 1270.386719 343.959808 C 1264.191162 340.982422 1251.975708 337.135864 1243.240967 335.411926 C 1231.780762 333.149689 1222.112305 332.540039 1208.508911 333.221527 C 1194.174072 333.93985 1185.38562 335.566376 1171.822998 340.010895 C 1162.013428 343.2258 1148.073608 349.47464 1140.845825 353.898071 C 1133.617676 358.321045 1122.885376 366.165009 1116.996582 371.329193 C 1111.107178 376.49295 1101.901245 387.099213 1096.53894 394.898712 C 1091.176758 402.697754 1084.279053 414.448395 1081.210327 421.01062 C 1078.142212 427.573273 1073.427979 440.813049 1070.734253 450.432556 C 1065.836792 467.922943 1065.836792 467.922943 1065.373413 621.46875 C 1065.119019 705.919067 1064.236694 777.083313 1063.412598 779.611755 C 1062.000488 783.947632 1061.057617 784.239014 1046.848755 784.737366 Z"/>
        <path id="e" fill="#fa6a04" fill-rule="evenodd" stroke="none" d="M 771.935181 784.776123 C 738.700195 785.183899 724.805298 784.680908 715.613037 782.723328 C 708.901001 781.294067 698.340576 778.371643 692.145508 776.228882 C 685.950012 774.086975 674.544861 769.278381 666.800598 765.544373 C 659.056274 761.809692 647.228516 754.872437 640.516907 750.128174 C 633.80481 745.383301 623.667053 736.948669 617.988098 731.383972 C 612.308655 725.819092 603.760864 716.001099 598.992676 709.566406 C 594.223999 703.131714 586.512207 690.553955 581.854919 681.615234 C 577.197632 672.676941 570.820618 657.644531 567.684143 648.209351 C 564.547607 638.774658 560.220764 622.278625 558.068848 611.551758 C 554.779236 595.153809 554.156372 585.185669 554.156372 548.947998 C 554.156372 510.363251 554.642212 503.49939 558.795349 483.422272 C 561.346985 471.088104 566.091797 453.754639 569.339233 444.904724 C 572.586182 436.053955 579.060364 421.500061 583.725464 412.56134 C 588.390991 403.623047 595.624268 391.434113 599.799377 385.475098 C 603.974915 379.516541 613.366089 368.678833 620.668518 361.391541 C 627.970947 354.10379 639.437073 344.224487 646.149109 339.4375 C 652.860779 334.649841 664.688477 327.45755 672.4328 323.453705 C 680.177063 319.449219 692.871521 314.185883 700.642883 311.757233 C 708.414673 309.327454 722.714294 306.028107 732.420288 304.42453 C 742.126343 302.820709 759.423096 301.511139 770.857605 301.514435 C 782.292053 301.517548 799.251038 302.792267 808.544556 304.346924 C 817.837585 305.901825 831.777405 309.206451 839.521667 311.691528 C 847.265991 314.176392 860.25061 319.605499 868.376709 323.756348 C 876.502808 327.907196 890.014954 336.590027 898.403259 343.052063 C 906.791931 349.513428 919.436462 361.702118 926.502869 370.137604 C 935.07312 380.368927 943.339478 393.290344 951.333984 408.949432 C 957.925537 421.860687 965.360901 439.331238 967.857056 447.772705 C 970.353271 456.2146 973.799133 470.841431 975.514282 480.276123 C 977.229431 489.711273 979.099487 507.58786 979.670593 520.002258 C 980.522217 538.527344 980.19635 543.221313 977.853271 546.185669 C 975.03894 549.745056 972.233398 549.81012 782.88147 550.699768 C 590.765747 551.602844 590.765747 551.602844 590.175842 560.587402 C 589.851746 565.529785 590.499451 577.729309 591.615479 587.697876 C 592.73114 597.66687 596.182983 615.156616 599.285522 626.564575 C 602.556763 638.59259 608.784424 654.919128 614.10907 665.426453 C 619.159607 675.392151 627.16333 688.499817 631.894897 694.554443 C 636.626892 700.609375 645.968079 710.483582 652.653564 716.499023 C 659.338623 722.513794 670.76532 730.838867 678.046204 734.999451 C 685.327087 739.159729 698.3974 744.921692 707.090942 747.804199 C 715.784912 750.686279 730.215637 753.953003 739.159424 755.06311 C 748.377319 756.208191 765.710754 756.642212 779.177124 756.06604 C 794.024475 755.431213 808.913513 753.592407 818.88031 751.162659 C 827.651794 749.024963 840.837646 744.510193 848.183167 741.130798 C 855.528687 737.750793 866.660645 731.282166 872.921692 726.755493 C 879.182312 722.228821 888.477173 713.877686 893.576782 708.196899 C 898.67688 702.515198 906.0224 693.07959 909.900513 687.227295 C 913.779053 681.37561 919.775635 670.627625 923.227051 663.343628 C 926.678406 656.05896 931.311401 644.189209 933.522949 636.966064 C 935.734497 629.742493 938.832031 618.648438 940.902405 616.910339 C 942.063416 615.935425 942.131714 611.829956 944.657227 607.521973 C 946.071228 605.109619 946.157837 603.721802 948.411987 601.888916 C 951.281311 599.555542 956.490417 597.155945 959.675964 598.137695 C 965.379211 599.896484 977.835815 596.019226 976.573059 609.401306 C 976.242126 612.906311 973.115723 623.748413 971.976257 631.056458 C 971.229187 635.848938 968.067444 646.748169 964.950684 655.275818 C 961.833862 663.803894 956.023376 677.374634 952.038025 685.434326 C 948.052673 693.493347 939.824341 706.494507 933.753052 714.325867 C 927.681763 722.157349 918.040771 732.781494 912.328369 737.934631 C 906.616394 743.08844 895.535339 751.327759 887.704407 756.244812 C 879.873474 761.161621 867.033264 767.760315 859.170288 770.908875 C 851.307251 774.057251 838.389099 778.342346 830.463745 780.431946 C 818.097473 783.691833 809.796753 784.308167 771.935181 784.776123 Z M 939.962769 517.293457 C 939.67218 494.45462 937.696716 480.001923 935.333435 470.10675 C 932.992676 460.305725 928.665344 445.897522 925.716797 438.087158 C 922.768677 430.277466 916.331177 417.276276 911.411194 409.195648 C 906.49176 401.115265 896.118347 388.076599 888.359863 380.220581 C 880.601379 372.36438 867.494812 361.710052 859.234436 356.54303 C 850.973572 351.376892 838.723694 345.071381 832.012085 342.531189 C 825.299988 339.990997 814.317444 336.831604 807.605835 335.511261 C 800.753967 334.162262 783.464966 333.10907 768.180359 333.10907 C 748.192627 333.10907 737.215576 333.986786 726.877502 336.411255 C 719.133179 338.227356 705.148438 343.246246 695.799927 347.564392 C 686.451904 351.882568 673.5979 359.179108 667.235535 363.779419 C 660.873169 368.379059 650.536926 377.528503 644.265747 384.111328 C 637.994141 390.694366 629.042114 402.134277 624.371521 409.532898 C 619.701416 416.93219 613.061279 429.578918 609.615845 437.636627 C 606.170898 445.694519 601.171631 460.667877 598.506836 470.910217 C 595.84198 481.152557 593.110168 494.711426 592.435974 501.040741 C 591.761719 507.370087 591.719116 513.82373 592.340637 515.382141 C 593.358154 517.932495 610.774536 518.169861 766.716858 517.755005 L 939.962769 517.293457 Z"/>
        <path id="path1" fill="#fa6a04" fill-rule="evenodd" stroke="none" d="M 3330.836182 788.530945 C 3297.601074 788.938721 3283.706299 788.43573 3274.51416 786.478088 C 3267.802002 785.048889 3257.241699 782.126465 3251.046631 779.983704 C 3244.851074 777.841797 3233.445801 773.033203 3225.70166 769.299194 C 3217.957275 765.564514 3206.129639 758.627197 3199.417969 753.882996 C 3192.705811 749.138062 3182.568115 740.703491 3176.88916 735.138794 C 3171.209717 729.573914 3162.661865 719.75592 3157.893555 713.321228 C 3153.125 706.886536 3145.41333 694.308777 3140.755859 685.369995 C 3136.098633 676.431763 3129.72168 661.399292 3126.585205 651.964172 C 3123.44873 642.52948 3119.121826 626.033447 3116.969971 615.30658 C 3113.680176 598.90863 3113.057373 588.940491 3113.057373 552.70282 C 3113.057373 514.118042 3113.543213 507.254181 3117.696289 487.177094 C 3120.248047 474.842896 3124.99292 457.50946 3128.240234 448.659546 C 3131.487305 439.808746 3137.961426 425.254883 3142.626465 416.316132 C 3147.291992 407.377838 3154.525146 395.188934 3158.700439 389.229919 C 3162.875977 383.271362 3172.26709 372.433655 3179.56958 365.146332 C 3186.87207 357.858612 3198.338135 347.979309 3205.050049 343.192322 C 3211.761719 338.404633 3223.5896 331.212341 3231.33374 327.208527 C 3239.078125 323.204041 3251.772461 317.940704 3259.543945 315.512024 C 3267.315674 313.082275 3281.615234 309.782928 3291.321289 308.179321 C 3301.027344 306.5755 3318.324219 305.265961 3329.758545 305.269257 C 3341.193115 305.272339 3358.1521 306.547058 3367.445557 308.101746 C 3376.738525 309.656616 3390.678467 312.961243 3398.422607 315.44635 C 3406.166992 317.931213 3419.151611 323.360321 3427.277588 327.511169 C 3435.403809 331.662018 3448.916016 340.344849 3457.304199 346.806854 C 3465.692871 353.268219 3478.337402 365.456909 3485.403809 373.892426 C 3493.974121 384.123749 3502.240479 397.045135 3510.235107 412.704224 C 3516.82666 425.615509 3524.261963 443.08606 3526.758057 451.527527 C 3529.25415 459.969391 3532.700195 474.596252 3534.415283 484.030945 C 3536.130371 493.466064 3538.000488 511.342651 3538.571533 523.75708 C 3539.42334 542.282166 3539.097412 546.976135 3536.75415 549.94043 C 3533.939941 553.499878 3531.134521 553.564941 3341.782471 554.45459 C 3149.666748 555.357666 3149.666748 555.357666 3149.076904 564.342224 C 3148.752686 569.284607 3149.400391 581.484131 3150.516602 591.452698 C 3151.63208 601.421692 3155.083984 618.911438 3158.186523 630.319397 C 3161.457764 642.347412 3167.685303 658.67395 3173.01001 669.181274 C 3178.060547 679.146973 3186.064453 692.254639 3190.795898 698.309265 C 3195.527832 704.364197 3204.869141 714.238403 3211.554688 720.253845 C 3218.239746 726.268616 3229.66626 734.593689 3236.947266 738.754211 C 3244.228027 742.914551 3257.29834 748.676514 3265.991943 751.559021 C 3274.686035 754.441101 3289.116699 757.707825 3298.060547 758.817871 C 3307.27832 759.963013 3324.611816 760.397034 3338.078125 759.820801 C 3352.925537 759.186035 3367.814453 757.347229 3377.78125 754.917419 C 3386.552734 752.779724 3399.738525 748.264954 3407.084229 744.88562 C 3414.429688 741.505615 3425.561523 735.036987 3431.822754 730.510254 C 3438.083252 725.983582 3447.378174 717.632507 3452.477783 711.951721 C 3457.577881 706.269958 3464.92334 696.834412 3468.801514 690.982056 C 3472.680176 685.130432 3478.676758 674.382446 3482.12793 667.09845 C 3485.579346 659.813782 3490.212402 647.944031 3492.424072 640.720886 C 3494.635498 633.497314 3497.733154 622.403198 3499.803467 620.665161 C 3500.964355 619.690186 3501.032715 615.584778 3503.558105 611.276733 C 3504.972168 608.86438 3505.058838 607.476563 3507.312988 605.643738 C 3510.182373 603.310303 3515.391357 600.910767 3518.576904 601.892517 C 3524.280273 603.651306 3536.736816 599.774048 3535.474121 613.156128 C 3535.143066 616.661133 3532.016846 627.503235 3530.877197 634.811279 C 3530.130127 639.60376 3526.968506 650.50293 3523.851807 659.03064 C 3520.734863 667.558716 3514.924316 681.129456 3510.938965 689.189148 C 3506.953613 697.248169 3498.725342 710.249329 3492.654053 718.080627 C 3486.582764 725.91217 3476.941895 736.536316 3471.229492 741.689453 C 3465.517334 746.843201 3454.436279 755.08252 3446.605469 759.999573 C 3438.774414 764.916443 3425.934326 771.515137 3418.071289 774.663696 C 3410.208252 777.812012 3397.290039 782.097107 3389.364746 784.186768 C 3376.998535 787.446655 3368.697754 788.062988 3330.836182 788.530945 Z M 3498.86377 521.048218 C 3498.573242 498.209442 3496.597656 483.756714 3494.234375 473.861572 C 3491.893555 464.060516 3487.566406 449.652344 3484.61792 441.84198 C 3481.669678 434.032257 3475.232178 421.031067 3470.312256 412.950439 C 3465.392822 404.870056 3455.019287 391.83139 3447.260986 383.975403 C 3439.502441 376.119171 3426.395752 365.464874 3418.135498 360.297852 C 3409.874512 355.131714 3397.624756 348.826202 3390.913086 346.28598 C 3384.200928 343.745789 3373.218506 340.586426 3366.506836 339.266083 C 3359.655029 337.917053 3342.365967 336.863861 3327.081299 336.863861 C 3307.09375 336.863861 3296.116699 337.741608 3285.778564 340.166077 C 3278.03418 341.982178 3264.049561 347.001068 3254.700928 351.319214 C 3245.352783 355.63736 3232.499023 362.933929 3226.136475 367.53421 C 3219.77417 372.13385 3209.437988 381.283325 3203.166748 387.86615 C 3196.895264 394.449188 3187.943115 405.889099 3183.272461 413.28772 C 3178.602295 420.686981 3171.962402 433.33374 3168.516846 441.391418 C 3165.072021 449.449341 3160.072754 464.422668 3157.407715 474.665009 C 3154.74292 484.907349 3152.01123 498.466217 3151.336914 504.795563 C 3150.662842 511.124878 3150.620117 517.578491 3151.241699 519.136963 C 3152.259277 521.687256 3169.675537 521.924683 3325.61792 521.509827 L 3498.86377 521.048218 Z"/>
        <path id="n" fill="#fa6a04" fill-rule="evenodd" stroke="none" d="M 2004.804443 788.833435 C 1996.177368 788.833435 1988.555908 788.282227 1987.867432 787.607971 C 1987.179077 786.933716 1986.616211 681.055237 1986.616211 552.322632 C 1986.616211 322.796539 1986.686279 318.226349 1990.247192 316.359833 C 1992.244751 315.313019 1998.841797 314.456085 2004.907593 314.456085 C 2011.461914 314.456085 2017.415527 315.51413 2019.581177 317.063263 C 2022.967896 319.485931 2023.291504 322.8302 2024.164185 364.409058 C 2025.102905 409.147675 2025.102905 409.147675 2030.735107 400.289642 C 2033.832642 395.417358 2039.634888 386.479401 2043.62854 380.426971 C 2047.622559 374.374969 2056.113525 364.231293 2062.497803 357.885712 C 2068.881836 351.540588 2079.450439 342.793884 2085.983398 338.449036 C 2092.516113 334.104187 2105.568115 327.008972 2114.987793 322.68161 C 2124.407715 318.354736 2139.295898 312.992218 2148.072754 310.765259 C 2159.125977 307.960571 2172.069336 306.41684 2190.185547 305.743042 C 2209.864014 305.011322 2221.2229 305.549103 2236.054688 307.916138 C 2246.896973 309.646179 2262.273682 313.387268 2270.225098 316.229218 C 2278.176025 319.071167 2290.839844 324.918457 2298.365967 329.223358 C 2305.89209 333.528259 2317.185303 342.176208 2323.462158 348.440979 C 2329.73877 354.70575 2338.058594 365.135834 2341.950195 371.619202 C 2345.842041 378.102142 2351.642822 390.025665 2354.841309 398.115662 C 2358.039551 406.206085 2362.384766 421.09906 2364.496826 431.211761 C 2368.161865 448.760376 2368.369873 457.144379 2369.065186 615.066406 C 2369.561523 727.865967 2369.16748 781.878723 2367.828125 784.758362 C 2365.977295 788.736938 2364.963379 788.951538 2350.408447 788.448303 C 2335.782959 787.942871 2334.874512 787.667664 2333.470947 783.317444 C 2332.655273 780.789246 2331.739746 703.427246 2331.436523 611.401611 C 2330.888184 445.126129 2330.858398 443.985046 2326.700684 428.453735 C 2324.399902 419.858307 2319.529785 406.897369 2315.878662 399.651764 C 2312.227539 392.406616 2304.548584 381.401062 2298.814697 375.195557 C 2293.080811 368.989594 2283.269775 360.507263 2277.012451 356.346008 C 2270.755371 352.184326 2259.876465 346.818237 2252.837646 344.420685 C 2245.798584 342.023132 2232.804932 339.147064 2223.961914 338.029327 C 2214.762451 336.866241 2198.101318 336.469421 2185.018555 337.101471 C 2171.159424 337.77121 2156.237549 339.740509 2147.134277 342.1008 C 2138.873291 344.24292 2124.511475 349.843323 2115.218262 354.546387 C 2101.432129 361.522675 2094.846436 366.489685 2079.446777 381.525848 C 2067.625977 393.067383 2057.703125 404.764221 2052.894531 412.825043 C 2048.672119 419.904083 2042.968506 431.073944 2040.219849 437.647095 C 2037.471558 444.220703 2032.981079 457.872498 2030.241455 467.985199 C 2025.260132 486.371918 2025.260132 486.371918 2024.705566 633.465698 C 2024.36499 723.688538 2023.442749 782.159302 2022.320313 784.696411 C 2020.631226 788.513855 2019.276855 788.833435 2004.804443 788.833435 Z"/>
        <path id="a" fill="#fa6a04" fill-rule="evenodd" stroke="none" d="M 2597.118896 788.79126 C 2566.661865 788.671875 2554.992188 787.923706 2543.018311 785.322754 C 2534.621826 783.498596 2521.365479 779.450623 2513.559814 776.327087 C 2505.754395 773.203125 2493.427002 766.637024 2486.166504 761.735168 C 2478.905762 756.833252 2469.654785 748.564636 2465.608398 743.360474 C 2461.5625 738.155945 2455.618164 728.830261 2452.398682 722.636902 C 2449.179443 716.443176 2445.298096 706.291321 2443.773926 700.077271 C 2441.963135 692.692078 2440.993652 679.064636 2440.975342 660.732788 C 2440.956055 641.316467 2441.830566 629.428162 2443.817139 622.096741 C 2445.395264 616.272217 2449.793457 605.746277 2453.591064 598.706543 C 2458.212891 590.137817 2465.176758 581.432556 2474.658203 572.370789 C 2482.447754 564.926147 2494.312744 555.774048 2501.024658 552.033203 C 2507.736328 548.291931 2519.979004 542.724243 2528.230225 539.660645 C 2536.481934 536.597046 2553.474609 532.199219 2565.992188 529.887756 C 2578.509766 527.576294 2600.483154 524.40686 2614.821289 522.84491 C 2629.159912 521.282471 2656.0979 518.759033 2674.68457 517.236694 C 2693.270752 515.714844 2715.656494 512.845947 2724.431152 510.861877 C 2733.205322 508.878204 2744.610596 505.384094 2749.776123 503.097748 C 2754.941162 500.811371 2762.699219 495.238434 2767.016113 490.71286 C 2771.332764 486.187256 2775.979492 478.954071 2777.341797 474.638245 C 2778.999268 469.38916 2779.819092 456.037994 2779.819092 434.305847 C 2779.819092 401.819977 2779.819092 401.819977 2773.938477 389.889801 C 2770.376221 382.662323 2764.043213 374.10025 2757.872803 368.168213 C 2751.520264 362.061249 2742.316895 355.82605 2733.41626 351.598328 C 2725.567383 347.869843 2711.67627 343.026123 2702.547119 340.834045 C 2688.419434 337.441711 2680.77832 336.848206 2651.217041 336.848206 C 2623.954346 336.848206 2613.254639 337.571716 2601.46582 340.212341 C 2593.205078 342.062469 2582.222412 345.269745 2577.05957 347.34021 C 2571.896729 349.410217 2563.448486 353.502686 2558.285645 356.43457 C 2553.122803 359.366425 2543.943848 366.310577 2537.887939 371.866333 C 2531.832764 377.422058 2524.033936 386.168335 2520.557861 391.302399 C 2517.082031 396.436493 2512.14209 406.639008 2509.580322 413.975281 C 2507.018555 421.311127 2503.988037 433.353668 2502.846191 440.736206 C 2501.365723 450.306885 2499.668945 455.064667 2496.934326 457.31665 C 2494.297607 459.488037 2489.898682 460.475006 2482.857666 460.475006 C 2477.225342 460.475006 2470.982666 459.634308 2468.985107 458.606781 C 2466.176758 457.162018 2465.359619 454.810425 2465.378418 448.22937 C 2465.39209 443.549561 2467.015137 432.210693 2468.985596 423.032196 C 2471.324951 412.133942 2475.762207 399.923981 2481.775879 387.839142 C 2486.840088 377.661316 2495.343506 364.307526 2500.671875 358.163544 C 2506.000244 352.019562 2515.651611 343.384766 2522.119385 338.975067 C 2528.587158 334.565369 2538.948242 328.520538 2545.143799 325.542389 C 2551.338867 322.563812 2563.282959 318.043518 2571.685303 315.496765 C 2580.087891 312.949982 2596.562012 309.488495 2608.294678 307.804016 C 2624.969238 305.410126 2636.800049 304.968201 2662.481445 305.780243 C 2684.225098 306.467621 2701.061279 308.005371 2712.265625 310.326996 C 2721.577148 312.256439 2735.884033 316.511932 2744.058594 319.783508 C 2752.23291 323.054657 2764.045898 329.097748 2770.308838 333.211792 C 2776.571777 337.325836 2785.763428 345.512085 2790.734863 351.403595 C 2795.706055 357.295074 2802.667969 367.869904 2806.206055 374.903046 C 2810.630859 383.699982 2813.567139 393.274628 2815.614502 405.584167 C 2818.139893 420.766083 2818.640625 446.587189 2818.917725 575.980347 C 2819.244629 728.483459 2819.244629 728.483459 2823.673584 735.913635 C 2826.255615 740.244446 2830.7854 744.573547 2834.532471 746.291077 C 2838.906006 748.295837 2846.023682 749.238342 2856.790039 749.238342 C 2870.517578 749.238342 2872.876221 749.701904 2874.561523 752.72937 C 2875.630371 754.649597 2876.505371 759.432495 2876.505371 763.357971 C 2876.505371 767.695801 2875.0979 772.167236 2872.916992 774.756714 C 2869.511963 778.800293 2868.196533 779.01709 2847.102783 779.01709 C 2829.798584 779.01709 2822.838135 778.261414 2815.67041 775.603577 C 2810.607422 773.726563 2803.316162 769.455627 2799.467773 766.113586 C 2795.619385 762.771484 2790.723877 756.13269 2788.588379 751.361267 C 2786.452881 746.589355 2783.82373 737.45929 2782.746094 731.072571 C 2781.668213 724.685364 2780.779297 713.977905 2780.771729 707.277405 C 2780.763916 700.577393 2780.000244 695.095215 2779.074463 695.095215 C 2778.148926 695.095215 2773.380371 701.282349 2768.477295 708.844238 C 2763.574707 716.405701 2754.405518 727.895691 2748.10083 734.377197 C 2741.796631 740.858643 2730.724854 750.175964 2723.49707 755.082703 C 2716.268799 759.989441 2705.708496 766.265137 2700.029541 769.029114 C 2694.350098 771.793152 2683.380371 776.237671 2675.6521 778.905579 C 2667.923828 781.573975 2655.829834 784.924011 2648.776367 786.350281 C 2639.823242 788.160767 2624.229736 788.897461 2597.118896 788.79126 Z M 2610.852783 759.165466 C 2634.565186 758.650818 2646.683838 757.540039 2658.000977 754.843872 C 2666.378906 752.848328 2677.783936 749.24231 2683.345947 746.830383 C 2688.907715 744.418457 2698.625977 739.188293 2704.942627 735.207764 C 2711.258545 731.227234 2722.461182 722.497681 2729.836914 715.809082 C 2737.212646 709.120544 2747.067627 698.123169 2751.737793 691.370667 C 2756.407471 684.617798 2762.678711 673.897522 2765.674072 667.547363 C 2768.668945 661.197632 2772.981445 649.570557 2775.25708 641.709534 C 2778.971191 628.880493 2779.482178 621.993164 2780.246826 574.462891 C 2780.95874 530.231873 2780.675293 521.610718 2778.526611 522.124512 C 2777.112061 522.462891 2773.022217 524.498108 2769.438477 526.646973 C 2765.854492 528.795898 2757.853271 532.15564 2751.658203 534.113281 C 2745.462646 536.070496 2732.790039 538.969788 2723.49707 540.555542 C 2714.203613 542.141357 2688.858643 545.060425 2667.175049 547.042358 C 2645.490967 549.024231 2616.766602 551.969299 2603.343262 553.58728 C 2589.919434 555.204773 2571.02002 558.446838 2561.34375 560.791382 C 2551.667969 563.136353 2537.425049 568.059326 2529.693604 571.731934 C 2521.962646 575.404053 2511.16333 582.339355 2505.695313 587.142944 C 2500.227783 591.947021 2493.203857 599.72522 2490.087158 604.427979 C 2486.970459 609.130676 2482.664551 618.028503 2480.519043 624.201111 C 2477.347168 633.326294 2476.618408 639.927673 2476.618408 659.517944 C 2476.618408 676.417419 2477.521973 686.538879 2479.643555 693.414246 C 2481.307861 698.805664 2484.674561 707.024048 2487.125732 711.677002 C 2489.576416 716.329895 2495.722168 724.116943 2500.781738 728.980957 C 2505.841553 733.84491 2513.761719 739.954102 2518.381592 742.557251 C 2523.001709 745.159973 2533.370605 749.415466 2541.42334 752.014221 C 2549.476074 754.612976 2561.210693 757.440918 2567.500732 758.298767 C 2573.790527 759.156677 2593.298828 759.547058 2610.852783 759.165466 Z"/>
        <path id="r" fill="#fa6a04" fill-rule="evenodd" stroke="none" d="M 2971.667236 785.045471 C 2963.040283 785.045471 2955.418701 784.485718 2954.730225 783.801147 C 2954.041748 783.116516 2953.479004 675.609558 2953.479004 544.896973 C 2953.479004 311.840698 2953.549072 307.200226 2957.110107 305.305023 C 2959.107422 304.242096 2965.865967 303.371979 2972.12915 303.371979 C 2981.013916 303.371979 2984.342529 304.192871 2987.272217 307.105865 C 2990.822754 310.636932 2991.0271 313.329346 2991.0271 356.580078 C 2991.0271 381.737427 2991.729248 402.320404 2992.587646 402.320404 C 2993.446289 402.320404 2997.457764 396.229553 3001.502197 388.785004 C 3006.542236 379.508575 3014.17334 369.963257 3025.755859 358.447021 C 3036.699951 347.566223 3048.119141 338.426086 3058.159424 332.511169 C 3066.686035 327.487823 3081.392334 320.490845 3090.839355 316.962067 C 3100.286377 313.433716 3115.285889 308.968719 3124.171387 307.039764 C 3133.057617 305.111298 3147.174805 302.965851 3155.543213 302.271667 C 3169.496826 301.11441 3171.091309 301.340027 3174.763184 304.991425 C 3177.931396 308.141907 3178.767334 311.237244 3178.767334 319.818085 C 3178.767334 325.782684 3177.666992 332.159302 3176.321777 333.988434 C 3174.326904 336.701324 3170.262207 337.471191 3154.262207 338.165802 C 3143.474365 338.634369 3127.467041 340.685913 3118.69043 342.725159 C 3109.913574 344.764404 3097.513428 348.853394 3091.134521 351.811981 C 3084.755615 354.770569 3074.61792 360.542786 3068.605713 364.639069 C 3062.593506 368.735321 3053.302246 376.158905 3047.958252 381.13623 C 3042.614014 386.113098 3033.197998 396.301117 3027.033691 403.776215 C 3020.868896 411.251312 3012.816162 423.432983 3009.138428 430.847015 C 3005.460449 438.261047 3000.127686 452.308289 2997.287598 462.062836 C 2992.123779 479.798889 2992.123779 479.798889 2991.568359 628.221558 C 2991.227783 719.208069 2990.304688 778.27002 2989.182617 780.844788 C 2987.494141 784.720947 2986.139648 785.045471 2971.667236 785.045471 Z"/>
        <path id="i-sin-raiz" fill="#fa6a04" fill-rule="evenodd" stroke="none" d="M 1864.612671 788.653687 C 1859.102783 788.653687 1853.913818 788.502075 1850.074829 788.259644 C 1846.530762 788.03595 1844.136719 787.734924 1843.702271 787.404907 C 1842.796143 786.717834 1842.056152 678.826782 1842.056152 547.647156 C 1842.056152 313.75824 1842.148071 309.101379 1846.833252 307.199402 C 1849.461426 306.13269 1857.79895 305.259705 1865.360229 305.259705 C 1875.815674 305.259705 1880.292725 306.157379 1884.050293 309.006714 C 1888.937866 312.714142 1888.990845 315.252197 1888.990845 547.0802 C 1888.990845 705.023621 1888.15686 782.587524 1886.432861 785.030151 C 1884.240601 788.137268 1881.129272 788.653687 1864.612671 788.653687 Z"/>
        <path id="s" fill="#fa6a04" fill-rule="evenodd" stroke="none" d="M 276.295013 784.348999 C 243.813538 784.802124 223.289978 784.15918 212.463287 782.330444 C 203.686325 780.847839 187.751312 777.543884 177.052505 774.988159 C 166.353683 772.432373 151.569122 768.067078 144.197937 765.287598 C 136.826736 762.508301 123.036812 756.053162 113.554001 750.942993 C 104.070724 745.833008 89.967743 736.880432 82.214745 731.048828 C 74.461288 725.217224 62.320042 714.072876 55.234402 706.284058 C 48.148762 698.494995 38.081551 685.34436 32.862316 677.061035 C 27.643078 668.777405 20.346138 655.131714 16.647249 646.738037 C 12.947904 638.343811 7.791461 624.352234 5.188947 615.645325 C 2.586433 606.938477 -1.340027 598.134521 5.95485 598.134521 C 16.347488 598.134521 42.921276 593.082031 45.380783 603.766357 C 47.620285 613.496277 48.143261 618.051636 51.191292 624.899414 C 54.239323 631.746643 60.559975 643.766113 65.237442 651.608093 C 69.914452 659.450073 80.182877 672.482117 88.055962 680.568298 C 95.928589 688.654175 108.184883 699.120056 115.292061 703.826416 C 122.399704 708.532776 133.441818 715.079834 139.83078 718.375366 C 146.220184 721.670898 159.960144 727.159424 170.3647 730.571167 C 180.769714 733.983643 198.511093 738.328247 209.790176 740.226746 C 221.069733 742.125 242.823959 744.23877 258.133331 744.924438 C 275.126678 745.685913 294.139038 745.188049 306.945801 743.646667 C 318.483398 742.257813 336.360443 738.743652 346.672882 735.835876 C 356.984863 732.928894 371.150635 727.833496 378.152405 724.512695 C 385.153687 721.191895 396.920929 714.120667 404.300842 708.799194 C 411.681183 703.477722 422.717804 693.809631 428.827148 687.313843 C 434.936066 680.819153 443.940338 668.829285 448.836456 660.669556 C 454.196411 651.737366 459.925323 638.397461 463.233704 627.145752 C 468.319092 609.849487 468.728851 606.118469 468.728851 577.067322 C 468.728851 549.829834 468.15271 543.745605 464.372711 531.062256 C 461.976898 523.023315 457.121582 511.133575 453.58313 504.640137 C 450.04422 498.147186 441.415771 486.806671 434.408508 479.438812 C 427.401245 472.070221 414.937775 461.694244 406.711761 456.3797 C 398.485748 451.065125 383.731445 443.181793 373.925018 438.86142 C 364.118622 434.541595 341.697479 426.975525 324.099579 422.0495 C 306.502136 417.123199 275.241241 409.205139 254.6306 404.452576 C 234.019958 399.700745 204.906464 392.56076 189.934433 388.58551 C 174.96196 384.610504 154.685913 378.447632 144.876755 374.890289 C 135.067139 371.333191 119.454803 364.516846 110.182831 359.743591 C 100.910858 354.970825 88.238388 347.422394 82.021774 342.970459 C 75.805168 338.518036 66.281105 330.674316 60.856987 325.538818 C 55.432869 320.403839 47.310898 310.863434 42.808521 304.33728 C 38.306145 297.811401 31.446012 285.438354 27.564241 276.841797 C 23.351084 267.511658 19.095758 253.594666 17.007055 242.313904 C 14.956395 231.239563 13.507549 214.752258 13.507549 202.489075 C 13.507549 189.922119 14.965104 173.689514 17.156477 161.851868 C 19.363436 149.930237 23.834644 135.103333 28.4704 124.334473 C 32.68631 114.541687 39.801743 100.811462 44.282574 93.823486 C 48.763866 86.83551 56.967426 76.357605 62.513466 70.540039 C 68.059044 64.721741 77.665619 56.139771 83.861137 51.467163 C 90.056206 46.795288 101.0392 39.65686 108.267387 35.604736 C 115.49511 31.552856 128.590179 25.414978 137.367142 21.965393 C 146.143631 18.515076 161.956268 13.731628 172.505661 11.335022 C 183.055511 8.938416 201.187393 5.868225 212.798798 4.513306 C 225.096802 3.077698 243.08934 2.599243 255.896118 3.367126 C 267.988312 4.091614 286.256775 6.086853 296.493134 7.800171 C 306.729462 9.513916 320.523071 12.321045 327.14624 14.037415 C 333.768951 15.753967 344.679047 19.149353 351.391144 21.582275 C 358.102783 24.014343 371.270264 30.032898 380.652222 34.955627 C 390.034668 39.878845 404.208252 48.79364 412.14917 54.767029 C 420.090546 60.739624 431.000671 70.548523 436.394073 76.563721 C 441.787018 82.579773 450.309143 93.598938 455.331726 101.050842 C 460.353882 108.502441 467.69986 121.773621 471.655884 130.542847 C 475.611908 139.311035 480.619385 152.345703 482.78418 159.507935 C 484.948975 166.669861 488.374237 181.493408 490.396912 192.448486 C 492.419159 203.403564 494.073822 216.93866 494.073822 222.526001 C 494.073822 230.428528 493.26712 233.166138 490.442291 234.851563 C 488.444794 236.042725 480.841248 237.017761 473.545654 237.017761 C 462.9729 237.017761 459.549469 236.203125 456.679749 233.004395 C 454.373779 230.433838 452.638458 224.604065 451.852844 216.786377 C 451.178619 210.074036 449.002838 197.131592 447.018646 188.024902 C 445.033966 178.91803 440.070953 163.777466 435.989807 154.378296 C 431.908203 144.979431 424.668549 131.506165 419.901245 124.437683 C 415.133942 117.369019 406.006348 106.493591 399.616943 100.270691 C 393.227997 94.046997 382.509003 85.244568 375.797394 80.708618 C 369.085297 76.173157 357.093018 69.460266 349.147522 65.791077 C 341.201996 62.12207 325.994873 56.795532 315.354248 53.953918 C 304.713654 51.11261 288.404175 47.829895 279.111115 46.65918 C 269.817596 45.488953 252.498825 44.541992 240.624329 44.55481 C 228.74939 44.568054 209.886429 45.935974 198.706345 47.594116 C 187.52626 49.25293 171.896973 52.559937 163.97438 54.943298 C 156.052261 57.326843 140.699341 64.105347 129.857529 70.007446 C 112.374207 79.524597 108.123001 83.008118 92.269119 100.807922 C 79.265259 115.408203 72.75943 124.614441 68.396851 134.590149 C 65.098564 142.131714 61.115955 154.373718 59.54702 161.794189 C 57.802998 170.042542 56.683247 185.468689 56.666286 201.488464 C 56.646122 220.53479 57.57703 231.463806 60.075039 241.504883 C 61.965279 249.102417 65.923134 259.911316 68.870789 265.525269 C 71.818436 271.138733 78.50898 280.820374 83.738762 287.040253 C 88.968994 293.259857 99.274086 302.761169 106.638863 308.154175 C 114.004097 313.546631 127.943909 321.819275 137.616028 326.538116 C 147.288589 331.256714 162.541122 337.480682 171.511047 340.369263 C 180.480499 343.258118 201.179153 348.902435 217.507431 352.912964 C 233.835709 356.923462 267.25174 365.028503 291.765717 370.924713 C 316.279205 376.82196 346.667389 384.929047 359.294006 388.94162 C 371.921112 392.953918 391.210327 400.452026 402.158508 405.60257 C 413.106659 410.753662 428.910583 419.663879 437.277313 425.403259 C 445.644501 431.142883 457.349396 440.777802 463.288239 446.813721 C 469.227081 452.850189 477.829865 463.439209 482.405121 470.344177 C 486.980377 477.249634 493.286835 488.550323 496.419189 495.455292 C 499.551086 502.361298 503.625366 513.90033 505.472992 521.097778 C 507.320129 528.294678 509.884155 543.153503 511.171204 554.117249 C 513.016968 569.841003 513.03302 578.634521 511.247284 595.756042 C 510.002411 607.693542 507.714325 622.968994 506.162811 629.700256 C 504.611298 636.43103 500.388519 648.917969 496.778992 657.447876 C 493.169495 665.977722 486.280945 679.104065 481.471008 686.617249 C 476.661072 694.130432 467.63385 705.865112 461.411285 712.694763 C 455.188721 719.523621 444.151184 729.790222 436.884033 735.508667 C 429.616913 741.227356 418.179688 748.981934 411.468048 752.741333 C 404.755981 756.500244 392.506104 762.453125 384.245697 765.969604 C 375.984863 769.486572 359.088226 774.907959 346.697632 778.017761 C 326.020081 783.207642 320.234314 783.727478 276.295013 784.348999 Z"/>
        <path id="seed" fill="#fa6a04" fill-rule="evenodd" stroke="none" d="M 1935.840332 62.353943 C 1935.840332 31.067993 1910.479004 5.706665 1879.192993 5.706665 C 1847.907959 5.706665 1822.546021 31.067993 1822.546021 62.353943 C 1822.546021 79.561035 1830.216919 94.976074 1842.327515 105.365112 C 1852.235718 113.865356 1865.114136 119 1879.192993 119 C 1910.479004 119 1935.840332 93.638977 1935.840332 62.353943 Z"/>
        <path id="seed-izq" fill="#fa6a04" fill-rule="evenodd" stroke="none" d="M 1840.997437 181.362122 C 1840.72876 140.595215 1807.461914 107.765259 1766.695068 108.033936 C 1725.928101 108.302612 1693.098145 141.568115 1693.366821 182.335083 C 1693.635498 223.10199 1726.900879 255.920105 1767.667847 255.651428 C 1782.751099 255.552063 1799.524536 248.305847 1811.160522 240.463501 C 1812.25 239.729736 1796.270142 226.13208 1780.398438 220.238281 C 1764.527954 214.344482 1748.764282 216.155762 1749.737305 215.340515 C 1750.794556 214.454895 1757.837036 175.459351 1775.024658 179.432678 C 1793.646484 183.736816 1822.515747 231.037781 1823.505737 229.971863 C 1835.185303 217.387146 1841.126953 201.021545 1840.997437 181.362122 Z"/>
        <path id="seed-der" fill="#fa6a04" fill-rule="evenodd" stroke="none" d="M 1878.418945 227.006104 C 1875.557495 258.541138 1898.803223 286.426788 1930.338379 289.28595 C 1961.874512 292.147095 1989.757568 268.903076 1992.618774 237.367004 C 1995.479858 205.830994 1972.235107 177.956543 1940.700073 175.095032 C 1929.031372 174.036377 1915.518921 178.376404 1905.933594 183.56311 C 1905.035767 184.047852 1916.365601 195.763062 1928.19165 201.514099 C 1940.016968 207.264587 1952.339478 207.050964 1951.526855 207.609497 C 1950.642456 208.213074 1941.078125 233.096741 1928.090454 228.732788 C 1914.018188 224.003113 1896.445313 189.995483 1895.60022 190.745483 C 1885.623535 199.593567 1879.79834 211.797852 1878.418945 227.006104 Z"/>
    </g>
</svg>
